<svg xmlns="http://www.w3.org/2000/svg" viewBox="0 0 251.6 29.18"><defs><style>.cls-1{fill:none;}</style></defs><title>about_bottom</title><g id="Layer_2" data-name="Layer 2"><g id="Layer_1-2" data-name="Layer 1"><path class="cls-1" d="M194.64,17.9c5.6,0,10.16-3.76,10.16-10.48V0H184.56V7.42C184.56,14.14,188.88,17.9,194.64,17.9Z"/><path class="cls-1" d="M137.12,18.46c8.16,0,13.6-6,13.6-17.92,0-.19,0-.36,0-.54h-27c0,.18,0,.35,0,.54C123.68,12.46,128.88,18.46,137.12,18.46Z"/><polygon class="cls-1" points="33.68 7.42 31.08 0 21.98 0 19.44 7.42 33.68 7.42"/><path class="cls-1" d="M85.52,17.66c5.44,0,8.08-2.24,8.08-6.32,0-4.88-3.6-6.64-9-6.64H72v13Z"/><polygon points="33.68 7.42 19.44 7.42 21.98 0 10.33 0 0 28.14 12.32 28.14 15.92 17.66 37.2 17.66 40.88 28.14 53.28 28.14 42.83 0 31.08 0 33.68 7.42"/><path d="M60.56,28.14h25c12.16,0,19-5.92,19-16.08,0-5.84-2.3-9.68-6-12.06H60.56ZM84.64,4.7c5.36,0,9,1.76,9,6.64,0,4.08-2.64,6.32-8.08,6.32H72V4.7Z"/><path d="M150.72.54c0,11.92-5.44,17.92-13.6,17.92s-13.44-6-13.44-17.92c0-.19,0-.36,0-.54H112c0,.18,0,.36,0,.54,0,18.8,10.4,28.64,25.12,28.64s25.2-9.84,25.2-28.64c0-.18,0-.36,0-.54H150.7C150.71.18,150.72.35,150.72.54Z"/><path d="M204.8,7.42c0,6.72-4.56,10.48-10.16,10.48-5.76,0-10.08-3.76-10.08-10.48V0H172.88V7.42c0,14.16,9.92,21.2,21.76,21.2,12,0,21.92-7,21.92-21.2V0H204.8Z"/><rect x="239.92" width="11.68" height="28.14"/></g></g></svg>