<svg xmlns="http://www.w3.org/2000/svg" viewBox="0 0 257.11 28.26"><defs><style>.cls-1{fill:none;}</style></defs><title>about_top</title><g id="Layer_2" data-name="Layer 2"><g id="Layer_1-2" data-name="Layer 1"><path class="cls-1" d="M126.79,10.8c-8.11,0-13.27,5.91-13.43,17.46h27C140.21,16.71,134.82,10.8,126.79,10.8Z"/><path class="cls-1" d="M75.51,11.6H61.67V23.44H75.51a5.76,5.76,0,0,0,5.84-6.16C81.35,13.6,79,11.6,75.51,11.6Z"/><polygon class="cls-1" points="11.65 28.26 20.75 28.26 16.15 15.12 11.65 28.26"/><polygon points="16.15 15.12 20.75 28.26 32.5 28.26 22.39 1.04 9.99 1.04 0 28.26 11.65 28.26 16.15 15.12"/><path d="M86.55,27.28c3.84-2.24,5.76-6,5.76-11.12C92.31,6.4,85.43,1,75.27,1h-25V28.26H88.32A15.13,15.13,0,0,0,86.55,27.28Zm-11-3.84H61.67V11.6H75.51c3.52,0,5.84,2,5.84,5.68A5.76,5.76,0,0,1,75.51,23.44Z"/><path d="M126.79,10.8c8,0,13.42,5.91,13.58,17.46H152C151.78,9.73,141.37,0,126.79,0s-24.91,9.73-25.11,28.26h11.68C113.52,16.71,118.68,10.8,126.79,10.8Z"/><rect x="162.55" y="1.04" width="11.68" height="27.22"/><rect x="194.47" y="1.04" width="11.76" height="27.22"/><polygon points="241.27 11.84 257.11 11.84 257.11 1.04 213.67 1.04 213.67 11.84 229.59 11.84 229.59 28.26 241.27 28.26 241.27 11.84"/></g></g></svg>