<svg xmlns="http://www.w3.org/2000/svg" viewBox="0 0 201.28 22.97"><defs><style>.cls-1{fill:none;}</style></defs><title>Asset 4</title><g id="Layer_2" data-name="Layer 2"><g id="Layer_1-2" data-name="Layer 1"><polygon class="cls-1" points="26.94 5.57 24.99 0 17.46 0 15.55 5.57 26.94 5.57"/><path class="cls-1" d="M109.69,14.4c6.53,0,10.88-4.8,10.88-14.34V0H98.94V.06C98.94,9.6,103.1,14.4,109.69,14.4Z"/><path class="cls-1" d="M68.41,13.76c4.36,0,6.47-1.79,6.47-5.06,0-3.9-2.88-5.31-7.17-5.31H57.6V13.76Z"/><path class="cls-1" d="M155.71,13.76c4.48,0,8.13-3,8.13-8.38V0H147.65V5.38C147.65,10.75,151.1,13.76,155.71,13.76Z"/><polygon points="26.94 5.57 15.55 5.57 17.46 0 8.13 0 0 22.14 9.86 22.14 12.73 13.76 29.76 13.76 32.7 22.14 42.62 22.14 34.4 0 24.99 0 26.94 5.57"/><path d="M48.45,22.14h20c9.72,0,15.23-4.73,15.23-12.86,0-4.38-1.62-7.36-4.26-9.28h-31ZM67.71,3.39c4.29,0,7.17,1.41,7.17,5.31,0,3.27-2.11,5.06-6.47,5.06H57.6V3.39Z"/><path d="M120.57.06c0,9.54-4.35,14.34-10.88,14.34S98.94,9.6,98.94.06V0H89.6V.06c0,15,8.32,22.91,20.09,22.91S129.85,15.1,129.85.06V0h-9.28Z"/><path d="M163.84,5.38c0,5.37-3.65,8.38-8.13,8.38s-8.06-3-8.06-8.38V0H138.3V5.38c0,11.32,7.94,17,17.41,17s17.53-5.63,17.53-16.95V0h-9.4Z"/><rect x="191.93" width="9.34" height="22.14"/></g></g></svg>