<svg xmlns="http://www.w3.org/2000/svg" viewBox="0 0 205.82 22.97"><defs><style>.cls-1{fill:none;}</style></defs><title>Asset 5</title><g id="Layer_2" data-name="Layer 2"><g id="Layer_1-2" data-name="Layer 1"><path class="cls-1" d="M101.56,8.64C95,8.64,90.83,13.48,90.82,23h21.62C112.42,13.48,108.08,8.64,101.56,8.64Z"/><polygon class="cls-1" points="13.05 12.1 9.33 22.97 16.86 22.97 13.05 12.1"/><path class="cls-1" d="M60.54,9.28H49.47v9.47H60.54a4.6,4.6,0,0,0,4.67-4.93C65.21,10.88,63.36,9.28,60.54,9.28Z"/><polygon points="8.13 0.83 0 22.97 9.33 22.97 13.05 12.1 16.86 22.97 26.27 22.97 18.05 0.83 8.13 0.83"/><path d="M74,12.93C74,5.12,68.48.83,60.35.83h-20V23h31a12.6,12.6,0,0,0-2-1.15C72.44,20,74,17,74,12.93ZM60.54,18.75H49.47V9.28H60.54c2.82,0,4.67,1.6,4.67,4.54A4.6,4.6,0,0,1,60.54,18.75Z"/><path d="M101.56,0C89.81,0,81.5,7.91,81.47,23h9.35c0-9.49,4.17-14.33,10.74-14.33S112.42,13.48,112.44,23h9.28C121.7,7.91,113.32,0,101.56,0Z"/><rect x="155.71" y="0.64" width="9.41" height="22.33"/><rect x="130.17" y="0.64" width="9.34" height="22.33"/><polygon points="193.15 9.47 205.82 9.47 205.82 0.83 171.07 0.83 171.07 9.47 183.81 9.47 183.81 22.97 193.15 22.97 193.15 9.47"/></g></g></svg>