<svg xmlns="http://www.w3.org/2000/svg" viewBox="0 0 746 316"><defs><style>.cls-1{opacity:0.39;}.cls-2{fill:blue;}.cls-3{fill:#1a1a1a;}.cls-4{fill:red;}</style></defs><title>Asset 40</title><g id="Layer_2" data-name="Layer 2"><g id="Layer_1-2" data-name="Layer 1"><g class="cls-1"><polygon class="cls-2" points="384.33 58 388.37 58 386.35 54.5 384.33 58"/><polygon class="cls-2" points="375.67 73 397.03 73 393.56 67 379.13 67 375.67 73"/><polygon class="cls-2" points="367 88 405.69 88 402.22 82 370.47 82 367 88"/><polygon class="cls-2" points="358.35 103 414.35 103 410.88 97 361.81 97 358.35 103"/><polygon class="cls-2" points="349.69 118 423.01 118 419.54 112 353.15 112 349.69 118"/><polygon class="cls-2" points="341.02 133 431.67 133 428.2 127 344.49 127 341.02 133"/><polygon class="cls-2" points="332.36 148 440.33 148 436.87 142 335.83 142 332.36 148"/><polygon class="cls-2" points="323.7 163 448.99 163 445.52 157 327.17 157 323.7 163"/><polygon class="cls-2" points="315.04 178 457.65 178 454.19 172 318.51 172 315.04 178"/><polygon class="cls-2" points="306.38 193 466.31 193 462.85 187 309.85 187 306.38 193"/><polygon class="cls-2" points="297.72 208 474.97 208 471.51 202 301.19 202 297.72 208"/><polygon class="cls-2" points="289.06 223 483.63 223 480.17 217 292.53 217 289.06 223"/><polygon class="cls-2" points="280.4 238 492.29 238 488.83 232 283.87 232 280.4 238"/><polygon class="cls-2" points="271.74 253 500.95 253 497.49 247 275.21 247 271.74 253"/><polygon class="cls-2" points="263.08 268 509.61 268 506.15 262 266.55 262 263.08 268"/></g><polygon class="cls-3" points="181 1 113.5 1 0 1 52 98 113.5 98 113.5 316 210.5 316 210.5 1 181 1"/><polygon class="cls-3" points="746 0 565 0 565 1 565 311 565 316 745.7 316 654.56 157.12 746 0"/><g class="cls-1"><polygon class="cls-4" points="395.19 60 399.23 60 397.2 56.5 395.19 60"/><polygon class="cls-4" points="386.55 75.01 407.91 74.99 404.44 68.99 390 69.01 386.55 75.01"/><polygon class="cls-4" points="377.91 90.03 416.59 89.97 413.12 83.98 381.36 84.02 377.91 90.03"/><polygon class="cls-4" points="369.27 105.04 425.27 104.96 421.8 98.97 372.72 99.03 369.27 105.04"/><polygon class="cls-4" points="360.63 120.05 433.95 119.95 430.48 113.95 364.08 114.05 360.63 120.05"/><polygon class="cls-4" points="351.99 135.06 442.63 134.94 439.16 128.94 355.44 129.06 351.99 135.06"/><polygon class="cls-4" points="343.35 150.07 451.31 149.93 447.84 143.93 346.8 144.07 343.35 150.07"/><polygon class="cls-4" points="334.71 165.08 459.99 164.92 456.52 158.92 338.16 159.08 334.71 165.08"/><polygon class="cls-4" points="326.07 180.1 468.67 179.9 465.2 173.91 329.52 174.09 326.07 180.1"/><polygon class="cls-4" points="317.43 195.11 477.35 194.89 473.88 188.9 320.88 189.1 317.43 195.11"/><polygon class="cls-4" points="308.79 210.12 486.03 209.88 482.56 203.88 312.24 204.12 308.79 210.12"/><polygon class="cls-4" points="300.15 225.13 494.71 224.87 491.24 218.87 303.6 219.13 300.15 225.13"/><polygon class="cls-4" points="291.51 240.14 503.39 239.86 499.92 233.86 294.96 234.14 291.51 240.14"/><polygon class="cls-4" points="282.87 255.15 512.07 254.85 508.6 248.85 286.32 249.15 282.87 255.15"/><polygon class="cls-4" points="274.23 270.17 520.75 269.83 517.28 263.84 277.68 264.16 274.23 270.17"/></g></g></g></svg>