<svg xmlns="http://www.w3.org/2000/svg" viewBox="0 0 282.8 28.26"><defs><style>.cls-1{fill:none;}</style></defs><title>works_top</title><g id="Layer_2" data-name="Layer 2"><g id="Layer_1-2" data-name="Layer 1"><path class="cls-1" d="M99.6,10.8c-8.11,0-13.27,5.91-13.42,17.46h27C113,16.71,107.63,10.8,99.6,10.8Z"/><path class="cls-1" d="M159.52,11.6H147.68V26h11.84c5,0,8.56-2.24,8.56-7.28S164.56,11.6,159.52,11.6Z"/><polygon class="cls-1" points="33.51 28.26 37.46 28.26 35.52 22 33.51 28.26"/><polygon points="12.24 1.04 0 1.04 6.61 28.26 18.75 28.26 12.24 1.04"/><polygon points="71.04 1.04 58.96 1.04 52.33 28.26 64.28 28.26 71.04 1.04"/><polygon points="35.52 22 37.46 28.26 48.84 28.26 41.12 1.04 30 1.04 22.2 28.26 33.51 28.26 35.52 22"/><path d="M99.6,10.8c8,0,13.42,5.91,13.59,17.46h11.6C124.59,9.73,114.18,0,99.6,0S74.69,9.73,74.49,28.26H86.18C86.33,16.71,91.49,10.8,99.6,10.8Z"/><path d="M179.2,18.48c0-11.6-8-17.44-19.92-17.44h-23.2V28.26h40.54A17.79,17.79,0,0,0,179.2,18.48ZM159.52,26H147.68V11.6h11.84c5,0,8.56,2.16,8.56,7.12S164.56,26,159.52,26Z"/><polygon points="216.56 21.76 232.96 1.04 220.32 1.04 201.6 24.96 201.6 1.04 189.92 1.04 189.92 28.26 220.22 28.26 216.56 21.76"/><path d="M273.36,25.12c-5.6-2.16-12.32-2.88-16.88-4.56-2.16-.8-4.48-1.92-4.48-4.64,0-3.28,3.52-5,9-5a18.39,18.39,0,0,1,13.68,5.52l8.16-7.12C279.36,5,272.64.48,261.52.48,248.16.48,240.8,7,240.8,16.4c0,6.17,3.23,9.52,7.89,11.86H279A21.57,21.57,0,0,0,273.36,25.12Z"/></g></g></svg>