<svg xmlns="http://www.w3.org/2000/svg" viewBox="0 0 277.63 29.18"><title>works_bottom</title><g id="Layer_2" data-name="Layer 2"><g id="Layer_1-2" data-name="Layer 1"><polygon points="13.71 6.54 12.15 0 0 0 6.83 28.14 17.87 28.14 26.9 0 15.59 0 13.71 6.54"/><polygon points="44.11 6.62 42.23 0 30.85 0 39.55 28.14 50.67 28.14 57.67 0 45.72 0 44.11 6.62"/><path d="M106.59.54c0,11.92-5.44,17.92-13.6,17.92S79.55,12.46,79.55.54c0-.19,0-.36,0-.54H67.88c0,.18,0,.36,0,.54,0,18.8,10.4,28.64,25.12,28.64s25.2-9.84,25.2-28.64c0-.18,0-.36,0-.54h-11.6C106.58.18,106.59.35,106.59.54Z"/><path d="M129.47,28.14h11.68V7.66h9l11.92,20.48h13.2L162,6.22A15.67,15.67,0,0,0,170,0H129.47Z"/><polygon points="183.31 28.14 194.99 28.14 194.99 12.3 202.51 2.78 216.59 28.14 229.47 28.14 213.61 0 183.31 0 183.31 28.14"/><path d="M244.51,1.1c5.68,2.32,12,3.28,16.48,4.72,3,1,5.36,2.16,5.36,5.68,0,4.4-3.84,7.12-11,7.12a21.59,21.59,0,0,1-16.4-7l-8.64,7.12c4.48,5.6,12.64,10,24.32,10,13.52,0,23-5.92,23-17.36,0-5.38-2.09-8.94-5.2-11.42H242.08C242.85.39,243.66.76,244.51,1.1Z"/></g></g></svg>