<svg xmlns="http://www.w3.org/2000/svg" viewBox="0 0 134.08 134.08"><defs><style>.cls-1{fill:#fff;}.cls-2{fill:#c5b6d9;}.cls-3{fill:#c5b6d9;}</style></defs><title>Asset 1</title><g id="Layer_2" data-name="Layer 2"><g id="Layer_1-2" data-name="Layer 1"><path class="cls-1" d="M67,132.91A65.87,65.87,0,1,1,67,1.17"/><path class="cls-2" d="M67,134.08A67,67,0,0,1,67,0V2.34a64.7,64.7,0,0,0,0,129.4Z"/><path class="cls-1" d="M67,1.17a65.87,65.87,0,0,1,0,131.74"/><path class="cls-2" d="M67,134.08v-2.34A64.7,64.7,0,1,0,67,2.34V0a67,67,0,1,1,0,134.08Z"/><path class="cls-3" d="M67,5.92a61.12,61.12,0,0,1,0,122.24"/><path class="cls-1" d="M67,129.33V127A59.95,59.95,0,1,0,67,7.09V4.75a62.29,62.29,0,1,1,0,124.58Z"/></g></g></svg>
