<svg xmlns="http://www.w3.org/2000/svg" xmlns:xlink="http://www.w3.org/1999/xlink" viewBox="7255.5 8580.5 103 60">
  <defs>
    <style>
      .cls-1, .cls-3 {
        fill: none;
      }

      .cls-2 {
        clip-path: url(#clip-path);
      }

      .cls-3 {
        stroke: #000;
      }
    </style>
    <clipPath id="clip-path">
      <rect class="cls-1" width="103" height="60"/>
    </clipPath>
  </defs>
  <g id="Repeat_Grid_6" data-name="Repeat Grid 6" class="cls-2" transform="translate(7255.5 8580.5)">
    <g transform="translate(-882.5 -7505.5)">
      <line id="Line_5" data-name="Line 5" class="cls-3" y2="87" transform="translate(883.5 7506.5)"/>
    </g>
    <g transform="translate(-877.5 -7505.5)">
      <line id="Line_5-2" data-name="Line 5" class="cls-3" y2="87" transform="translate(883.5 7506.5)"/>
    </g>
    <g transform="translate(-872.5 -7505.5)">
      <line id="Line_5-3" data-name="Line 5" class="cls-3" y2="87" transform="translate(883.5 7506.5)"/>
    </g>
    <g transform="translate(-867.5 -7505.5)">
      <line id="Line_5-4" data-name="Line 5" class="cls-3" y2="87" transform="translate(883.5 7506.5)"/>
    </g>
    <g transform="translate(-862.5 -7505.5)">
      <line id="Line_5-5" data-name="Line 5" class="cls-3" y2="87" transform="translate(883.5 7506.5)"/>
    </g>
    <g transform="translate(-857.5 -7505.5)">
      <line id="Line_5-6" data-name="Line 5" class="cls-3" y2="87" transform="translate(883.5 7506.5)"/>
    </g>
    <g transform="translate(-852.5 -7505.5)">
      <line id="Line_5-7" data-name="Line 5" class="cls-3" y2="87" transform="translate(883.5 7506.5)"/>
    </g>
    <g transform="translate(-847.5 -7505.5)">
      <line id="Line_5-8" data-name="Line 5" class="cls-3" y2="87" transform="translate(883.5 7506.5)"/>
    </g>
    <g transform="translate(-842.5 -7505.5)">
      <line id="Line_5-9" data-name="Line 5" class="cls-3" y2="87" transform="translate(883.5 7506.5)"/>
    </g>
    <g transform="translate(-837.5 -7505.5)">
      <line id="Line_5-10" data-name="Line 5" class="cls-3" y2="87" transform="translate(883.5 7506.5)"/>
    </g>
    <g transform="translate(-832.5 -7505.5)">
      <line id="Line_5-11" data-name="Line 5" class="cls-3" y2="87" transform="translate(883.5 7506.5)"/>
    </g>
    <g transform="translate(-827.5 -7505.5)">
      <line id="Line_5-12" data-name="Line 5" class="cls-3" y2="87" transform="translate(883.5 7506.5)"/>
    </g>
    <g transform="translate(-822.5 -7505.5)">
      <line id="Line_5-13" data-name="Line 5" class="cls-3" y2="87" transform="translate(883.5 7506.5)"/>
    </g>
    <g transform="translate(-817.5 -7505.5)">
      <line id="Line_5-14" data-name="Line 5" class="cls-3" y2="87" transform="translate(883.5 7506.5)"/>
    </g>
    <g transform="translate(-812.5 -7505.5)">
      <line id="Line_5-15" data-name="Line 5" class="cls-3" y2="87" transform="translate(883.5 7506.5)"/>
    </g>
    <g transform="translate(-807.5 -7505.5)">
      <line id="Line_5-16" data-name="Line 5" class="cls-3" y2="87" transform="translate(883.5 7506.5)"/>
    </g>
    <g transform="translate(-802.5 -7505.5)">
      <line id="Line_5-17" data-name="Line 5" class="cls-3" y2="87" transform="translate(883.5 7506.5)"/>
    </g>
    <g transform="translate(-797.5 -7505.5)">
      <line id="Line_5-18" data-name="Line 5" class="cls-3" y2="87" transform="translate(883.5 7506.5)"/>
    </g>
    <g transform="translate(-792.5 -7505.5)">
      <line id="Line_5-19" data-name="Line 5" class="cls-3" y2="87" transform="translate(883.5 7506.5)"/>
    </g>
    <g transform="translate(-787.5 -7505.5)">
      <line id="Line_5-20" data-name="Line 5" class="cls-3" y2="87" transform="translate(883.5 7506.5)"/>
    </g>
    <g transform="translate(-782.5 -7505.5)">
      <line id="Line_5-21" data-name="Line 5" class="cls-3" y2="87" transform="translate(883.5 7506.5)"/>
    </g>
  </g>
</svg>
