<svg xmlns="http://www.w3.org/2000/svg" xmlns:xlink="http://www.w3.org/1999/xlink" viewBox="6629.5 2905.5 60 57">
  <defs>
    <style>
      .cls-1, .cls-3 {
        fill: none;
      }

      .cls-2 {
        clip-path: url(#clip-path);
      }

      .cls-3 {
        stroke: #000;
      }
    </style>
    <clipPath id="clip-path">
      <rect class="cls-1" width="60" height="57"/>
    </clipPath>
  </defs>
  <g id="Repeat_Grid_7" data-name="Repeat Grid 7" class="cls-2" transform="translate(6629.5 2905.5)">
    <g transform="translate(-882.5 -7505.5)">
      <path id="Path_1566" data-name="Path 1566" class="cls-3" d="M0,0V87" transform="translate(883.5 7506.5)"/>
    </g>
    <g transform="translate(-878.5 -7505.5)">
      <path id="Path_1566-2" data-name="Path 1566" class="cls-3" d="M0,0V87" transform="translate(883.5 7506.5)"/>
    </g>
    <g transform="translate(-874.5 -7505.5)">
      <path id="Path_1566-3" data-name="Path 1566" class="cls-3" d="M0,0V87" transform="translate(883.5 7506.5)"/>
    </g>
    <g transform="translate(-870.5 -7505.5)">
      <path id="Path_1566-4" data-name="Path 1566" class="cls-3" d="M0,0V87" transform="translate(883.5 7506.5)"/>
    </g>
    <g transform="translate(-866.5 -7505.5)">
      <path id="Path_1566-5" data-name="Path 1566" class="cls-3" d="M0,0V87" transform="translate(883.5 7506.5)"/>
    </g>
    <g transform="translate(-862.5 -7505.5)">
      <path id="Path_1566-6" data-name="Path 1566" class="cls-3" d="M0,0V87" transform="translate(883.5 7506.5)"/>
    </g>
    <g transform="translate(-858.5 -7505.5)">
      <path id="Path_1566-7" data-name="Path 1566" class="cls-3" d="M0,0V87" transform="translate(883.5 7506.5)"/>
    </g>
    <g transform="translate(-854.5 -7505.5)">
      <path id="Path_1566-8" data-name="Path 1566" class="cls-3" d="M0,0V87" transform="translate(883.5 7506.5)"/>
    </g>
    <g transform="translate(-850.5 -7505.5)">
      <path id="Path_1566-9" data-name="Path 1566" class="cls-3" d="M0,0V87" transform="translate(883.5 7506.5)"/>
    </g>
    <g transform="translate(-846.5 -7505.5)">
      <path id="Path_1566-10" data-name="Path 1566" class="cls-3" d="M0,0V87" transform="translate(883.5 7506.5)"/>
    </g>
    <g transform="translate(-842.5 -7505.5)">
      <path id="Path_1566-11" data-name="Path 1566" class="cls-3" d="M0,0V87" transform="translate(883.5 7506.5)"/>
    </g>
    <g transform="translate(-838.5 -7505.5)">
      <path id="Path_1566-12" data-name="Path 1566" class="cls-3" d="M0,0V87" transform="translate(883.5 7506.5)"/>
    </g>
    <g transform="translate(-834.5 -7505.5)">
      <path id="Path_1566-13" data-name="Path 1566" class="cls-3" d="M0,0V87" transform="translate(883.5 7506.5)"/>
    </g>
    <g transform="translate(-830.5 -7505.5)">
      <path id="Path_1566-14" data-name="Path 1566" class="cls-3" d="M0,0V87" transform="translate(883.5 7506.5)"/>
    </g>
    <g transform="translate(-826.5 -7505.5)">
      <path id="Path_1566-15" data-name="Path 1566" class="cls-3" d="M0,0V87" transform="translate(883.5 7506.5)"/>
    </g>
  </g>
</svg>
