<svg xmlns="http://www.w3.org/2000/svg" viewBox="6935.396 7941.799 173.972 138.314">
  <defs>
    <style>
      .cls-1 {
        fill: #ebebeb;
      }
    </style>
  </defs>
  <path id="quote" class="cls-1" d="M76.866,149.064a37.7,37.7,0,0,1-28.29-11.811Q37.26,125.406,37.26,103.3a100.148,100.148,0,0,1,15.347-52.8,118.112,118.112,0,0,1,38.9-39.748L111.1,23.349a118.5,118.5,0,0,0-18.884,22.88A71.751,71.751,0,0,0,80.4,75.651,36.742,36.742,0,0,1,104.06,86.472a32.64,32.64,0,0,1,10.078,24.365,36.707,36.707,0,0,1-11.069,27.406,36.1,36.1,0,0,1-26.2,10.821Zm97.075,0a37.7,37.7,0,0,1-28.29-11.811q-11.281-11.847-11.281-33.948a100.148,100.148,0,0,1,15.241-52.8,118.112,118.112,0,0,1,38.9-39.748l19.662,12.589a118.5,118.5,0,0,0-18.884,22.88,71.751,71.751,0,0,0-11.811,29.422,36.742,36.742,0,0,1,23.658,10.821,32.711,32.711,0,0,1,10.078,24.4,36.707,36.707,0,0,1-11.069,27.406,36.07,36.07,0,0,1-26.2,10.786Z" transform="translate(6898.137 7931.039)"/>
</svg>
