<svg xmlns="http://www.w3.org/2000/svg" viewBox="0 0 225.98 22.97"><defs><style>.cls-1{fill:none;}</style></defs><title>Asset 2</title><g id="Layer_2" data-name="Layer 2"><g id="Layer_1-2" data-name="Layer 1"><path class="cls-1" d="M127.36,9.28h-9.47V20.8h9.47c4,0,6.85-1.79,6.85-5.82S131.39,9.28,127.36,9.28Z"/><path class="cls-1" d="M79.43,8.64c-6.58,0-10.74,4.84-10.75,14.33H90.3C90.28,13.48,85.94,8.64,79.43,8.64Z"/><polygon points="32.89 0.83 24 0.83 17.65 22.97 26.69 22.97 28.41 17.6 30.08 22.97 39.17 22.97 32.89 0.83"/><polygon points="9.79 0.83 0 0.83 5.38 22.97 15.09 22.97 9.79 0.83"/><polygon points="47.16 0.83 41.77 22.97 51.32 22.97 56.83 0.83 47.16 0.83"/><path d="M79.43,0C67.67,0,59.36,7.91,59.33,23h9.35c0-9.49,4.17-14.33,10.75-14.33S90.28,13.48,90.3,23h9.28C99.56,7.91,91.18,0,79.43,0Z"/><path d="M127.17.83H108.61V23H140.8a14,14,0,0,0,2.3-8.19C143.1,5.5,136.7.83,127.17.83Zm.19,20h-9.47V9.28h9.47c4,0,6.85,1.73,6.85,5.7S131.39,20.8,127.36,20.8Z"/><polygon points="186.11 0.83 176 0.83 161.03 19.97 161.03 0.83 151.68 0.83 151.68 22.97 176.13 22.97 172.99 17.41 186.11 0.83"/><path d="M218.43,20.06c-4.48-1.73-9.85-2.3-13.5-3.64-1.73-.65-3.59-1.54-3.59-3.72,0-2.62,2.82-4,7.17-4a14.68,14.68,0,0,1,10.94,4.42L226,7.39c-2.75-3.39-8.12-7-17-7-10.69,0-16.57,5.25-16.57,12.74,0,5.29,3,8,7.14,9.88h23.93A16.91,16.91,0,0,0,218.43,20.06Z"/></g></g></svg>