<svg xmlns="http://www.w3.org/2000/svg" viewBox="0 0 221.76 22.97"><title>Asset 3</title><g id="Layer_2" data-name="Layer 2"><g id="Layer_1-2" data-name="Layer 1"><polygon points="35.2 4.93 33.8 0 24.7 0 31.55 22.14 40.45 22.14 45.95 0 36.4 0 35.2 4.93"/><polygon points="10.88 4.86 9.71 0 0 0 5.38 22.14 14.21 22.14 21.31 0 12.27 0 10.88 4.86"/><path d="M84.93.06c0,9.54-4.35,14.34-10.88,14.34S63.3,9.6,63.3.06V0H54V.06C54,15.1,62.27,23,74.05,23S94.21,15.1,94.21.06V0H84.93Z"/><path d="M103.23,22.14h9.35V5.76h7.23l9.53,16.38H139.9L129.22,4.61A12.67,12.67,0,0,0,135.43,0h-32.2Z"/><polygon points="146.31 22.14 155.65 22.14 155.65 9.47 161.66 1.86 172.93 22.14 183.23 22.14 170.75 0 146.31 0 146.31 22.14"/><path d="M218.08,0H194.15q.56.26,1.11.48c4.55,1.86,9.6,2.62,13.19,3.78,2.37.76,4.29,1.72,4.29,4.54,0,3.52-3.08,5.7-8.84,5.7a17.25,17.25,0,0,1-13.11-5.57l-6.92,5.69c3.59,4.48,10.12,8,19.46,8,10.81,0,18.43-4.73,18.43-13.88A11,11,0,0,0,218.08,0Z"/></g></g></svg>