<svg id="レイヤー_1" data-name="レイヤー 1" xmlns="http://www.w3.org/2000/svg" viewBox="0 0 232.7 43.9"><defs><style>.cls-1{fill:none;stroke:#fff;stroke-miterlimit:10;}.cls-2{fill:#fff;}</style></defs><title>box_spring</title><polyline class="cls-1" points="40.9 4.5 58.4 22.1 41.1 39.4"/><polygon class="cls-2" points="41.1 41.52 38.98 39.4 56.28 22.1 38.78 4.49 40.91 2.38 60.52 22.1 41.1 41.52"/><rect class="cls-2" x="36.3" width="9.4" height="9.4"/><rect class="cls-2" x="53.6" y="17.3" width="9.4" height="9.4"/><rect class="cls-2" x="36.3" y="34.5" width="9.4" height="9.4"/><rect class="cls-2" y="17.3" width="9.4" height="9.4"/><path class="cls-2" d="M89.45,24.25a3.63,3.63,0,0,1,2.1,1.3,3.84,3.84,0,0,1,.7,2.2,3.3,3.3,0,0,1-1.4,2.9,7.62,7.62,0,0,1-4.2,1H82v-1.4h1.5v-11H82v-1.4h4.7a7.58,7.58,0,0,1,3.9.8,2.86,2.86,0,0,1,1.2,2.6,3.83,3.83,0,0,1-.5,1.9c-.3.5-1,.7-1.8,1.1Zm-2.6-.6a3.84,3.84,0,0,0,2.4-.6,2.2,2.2,0,0,0,.8-1.8,1.83,1.83,0,0,0-.7-1.7,5.57,5.57,0,0,0-2.7-.5h-1.5v4.6Zm0,6.5a5.3,5.3,0,0,0,2.8-.6,2.08,2.08,0,0,0,.9-1.9,2.41,2.41,0,0,0-.8-1.9,3.81,3.81,0,0,0-2.7-.7H85v5.1Z" transform="translate(-8.65 -3.55)"/><path class="cls-2" d="M93.45,26.25a5.72,5.72,0,0,1,1.4-4,4.61,4.61,0,0,1,3.6-1.5,4.44,4.44,0,0,1,3.4,1.4,5.17,5.17,0,0,1,1.3,3.8,6,6,0,0,1-1.4,4.1,4.61,4.61,0,0,1-3.6,1.5,4.83,4.83,0,0,1-3.5-1.4A6.05,6.05,0,0,1,93.45,26.25Zm1.6-.2a5.22,5.22,0,0,0,.8,3.1,3,3,0,0,0,2.4,1.1,2.64,2.64,0,0,0,2.3-1,5.1,5.1,0,0,0,.8-3,5.1,5.1,0,0,0-.8-3,2.84,2.84,0,0,0-2.4-1,3,3,0,0,0-2.3.9A4.37,4.37,0,0,0,95.05,26.05Z" transform="translate(-8.65 -3.55)"/><path class="cls-2" d="M109.35,25.15l2.3-3h-1.2v-1.4h4.1v1.4h-1.4l-3.2,3.9,3.1,4h1.5v1.4H110v-1.4h1.1l-2.1-3h-.1l-2.3,3h1.3v1.4h-4.1v-1.4H105l3.2-4-3-4h-1.4v-1.4h4.6v1.4h-1.2l2.2,3.1Z" transform="translate(-8.65 -3.55)"/><path class="cls-2" d="M126.15,31.55a11.94,11.94,0,0,1-4.1-.8v-3.3h1.5v2.3a7.89,7.89,0,0,0,2.8.4,4.4,4.4,0,0,0,2.5-.6,1.76,1.76,0,0,0,.9-1.5,2.92,2.92,0,0,0-.2-.9,1.17,1.17,0,0,0-.6-.6,2.81,2.81,0,0,0-1.1-.5,5.27,5.27,0,0,0-1.5-.5c-.5-.2-1-.4-1.6-.6s-1-.5-1.4-.7a5.73,5.73,0,0,1-1.1-1.1,2.73,2.73,0,0,1-.4-1.6,3.32,3.32,0,0,1,1.4-2.7,5.82,5.82,0,0,1,3.7-1,7.9,7.9,0,0,1,3.8.9V22h-1.5v-2.3a6.25,6.25,0,0,0-2.5-.4,3.71,3.71,0,0,0-2.3.6,1.9,1.9,0,0,0-.8,1.5,2,2,0,0,0,.2.9,2.31,2.31,0,0,0,.7.7,2.81,2.81,0,0,0,1.1.5,13.08,13.08,0,0,0,1.5.5c.5.2,1,.4,1.6.6a6.11,6.11,0,0,1,1.4.7,2.66,2.66,0,0,1,1,1.1,2.41,2.41,0,0,1,.4,1.5,3.37,3.37,0,0,1-1.4,2.8A7.65,7.65,0,0,1,126.15,31.55Z" transform="translate(-8.65 -3.55)"/><path class="cls-2" d="M136.85,34.75v1.4h-4.6v-1.4h1.5V22.25h-1.5v-1.4h3l.1,1.2h.1a4.36,4.36,0,0,1,2.9-1.2,3.89,3.89,0,0,1,3,1.4,5.49,5.49,0,0,1,1.2,3.7,5.68,5.68,0,0,1-1.3,4,4.42,4.42,0,0,1-3.4,1.6,5.93,5.93,0,0,1-2.3-.5h-.1v3.7Zm-1.6-5a5.09,5.09,0,0,0,2.2.4,3.33,3.33,0,0,0,2.5-.9,4.14,4.14,0,0,0,.9-3,5.1,5.1,0,0,0-.8-3,2.53,2.53,0,0,0-2.2-1.1,3.45,3.45,0,0,0-2.6,1.3v6.3Z" transform="translate(-8.65 -3.55)"/><path class="cls-2" d="M150.05,22.55a4.1,4.1,0,0,0-1.1-.1,2.5,2.5,0,0,0-2.5,1.6v6.1H148v1.4h-4.6v-1.4h1.5v-7.9h-1.5v-1.4h3l.1,1.6h.1a3.28,3.28,0,0,1,2.7-1.6,2.2,2.2,0,0,1,.8.1Z" transform="translate(-8.65 -3.55)"/><path class="cls-2" d="M151.65,30.15h1.5v-7.9h-1.5v-1.4h3.1v9.4h1.5v1.4h-4.6Zm1-12a1.22,1.22,0,0,1,.3-.9,1.1,1.1,0,0,1,1.9.8,1.22,1.22,0,0,1-.3.9,1.1,1.1,0,0,1-1.9-.8Z" transform="translate(-8.65 -3.55)"/><path class="cls-2" d="M157.35,30.15h1.5v-7.9h-1.5v-1.4h3l.1,1.5h0a4.63,4.63,0,0,1,3.4-1.5,2.87,2.87,0,0,1,2.3.9,3.61,3.61,0,0,1,.7,2.4v6.1h1.5v1.4h-4.6v-1.4h1.5v-5.9a2.17,2.17,0,0,0-.5-1.6,2,2,0,0,0-1.4-.4,3.8,3.8,0,0,0-3,1.6v6.3h1.5v1.4h-4.6v-1.5Z" transform="translate(-8.65 -3.55)"/><path class="cls-2" d="M176.25,31.15v-.7h-.1a4,4,0,0,1-2.8,1.2,3.88,3.88,0,0,1-3.1-1.5,5.67,5.67,0,0,1-1.2-3.7,5.94,5.94,0,0,1,1.3-4.1,4.9,4.9,0,0,1,3.8-1.5,12.31,12.31,0,0,1,3.6.6v9.7a5.86,5.86,0,0,1-1.1,3.9,4.49,4.49,0,0,1-3.5,1.2,11.48,11.48,0,0,1-3.1-.4v-1.5a10.07,10.07,0,0,0,3.1.5,3.29,3.29,0,0,0,2.4-.7A5.49,5.49,0,0,0,176.25,31.15Zm0-8.7a7.8,7.8,0,0,0-2.2-.3,2.92,2.92,0,0,0-2.5,1,5.1,5.1,0,0,0-.8,3,5.1,5.1,0,0,0,.8,3,2.57,2.57,0,0,0,2.2,1,3.58,3.58,0,0,0,2.5-1.1Z" transform="translate(-8.65 -3.55)"/><path class="cls-2" d="M188.75,31.55a11.94,11.94,0,0,1-4.1-.8v-3.3h1.5v2.3a7.89,7.89,0,0,0,2.8.4,4.4,4.4,0,0,0,2.5-.6,1.76,1.76,0,0,0,.9-1.5,2.92,2.92,0,0,0-.2-.9,1.17,1.17,0,0,0-.6-.6,2.81,2.81,0,0,0-1.1-.5,5.27,5.27,0,0,0-1.5-.5c-.5-.2-1-.4-1.6-.6s-1-.5-1.4-.7a5.73,5.73,0,0,1-1.1-1.1,2.73,2.73,0,0,1-.4-1.6,3.32,3.32,0,0,1,1.4-2.7,5.82,5.82,0,0,1,3.7-1,7.9,7.9,0,0,1,3.8.9V22h-1.5v-2.3a6.25,6.25,0,0,0-2.5-.4,3.71,3.71,0,0,0-2.3.6,1.9,1.9,0,0,0-.8,1.5,2,2,0,0,0,.2.9,2.31,2.31,0,0,0,.7.7,2.81,2.81,0,0,0,1.1.5,13.08,13.08,0,0,0,1.5.5c.5.2,1,.4,1.6.6a6.11,6.11,0,0,1,1.4.7,2.66,2.66,0,0,1,1,1.1,2.41,2.41,0,0,1,.4,1.5,3.37,3.37,0,0,1-1.4,2.8A7.65,7.65,0,0,1,188.75,31.55Z" transform="translate(-8.65 -3.55)"/><path class="cls-2" d="M199.65,31.55a3.7,3.7,0,0,1-2.1-.6,2.27,2.27,0,0,1-.8-1.9v-6.8h-1.5v-1.4h1.5v-2.8l1.5-.3v3.1h3.3v1.4h-3.3v6.6a1.1,1.1,0,0,0,.5,1,2,2,0,0,0,1.1.3,3.69,3.69,0,0,0,1.7-.5v1.4A3.2,3.2,0,0,1,199.65,31.55Z" transform="translate(-8.65 -3.55)"/><path class="cls-2" d="M210.65,22.25h-1.5v-1.4h3.1v9.4h1.5v1.4h-3l-.1-1.5h-.1a3.93,3.93,0,0,1-3.2,1.5,3.65,3.65,0,0,1-2.4-.8,2.82,2.82,0,0,1-.8-2.3v-6.3h-1.5v-1.4h3.1v7.3a1.84,1.84,0,0,0,.6,1.6,2.41,2.41,0,0,0,1.5.4,3.37,3.37,0,0,0,2.8-1.4v-6.5Z" transform="translate(-8.65 -3.55)"/><path class="cls-2" d="M220.25,17.55v-1.4h3.1v14h1.5v1.4h-3l-.1-1.3h-.1a3.69,3.69,0,0,1-2.8,1.3,3.88,3.88,0,0,1-3.1-1.5,5.67,5.67,0,0,1-1.2-3.7,6.11,6.11,0,0,1,1.3-4.1,4.54,4.54,0,0,1,3.5-1.5,5.93,5.93,0,0,1,2.3.5h.1v-3.7Zm1.5,5.1a5.93,5.93,0,0,0-2.3-.5,2.72,2.72,0,0,0-2.4,1,4.89,4.89,0,0,0-.8,3,5.1,5.1,0,0,0,.8,3,2.57,2.57,0,0,0,2.2,1,3.17,3.17,0,0,0,2.5-1.2Z" transform="translate(-8.65 -3.55)"/><path class="cls-2" d="M226.15,30.15h1.5v-7.9h-1.5v-1.4h3.1v9.4h1.5v1.4h-4.6Zm1-12a1.22,1.22,0,0,1,.3-.9,1.1,1.1,0,0,1,1.9.8,1.22,1.22,0,0,1-.3.9,1.1,1.1,0,0,1-1.9-.8Z" transform="translate(-8.65 -3.55)"/><path class="cls-2" d="M231.65,26.25a5.72,5.72,0,0,1,1.4-4,4.61,4.61,0,0,1,3.6-1.5,4.44,4.44,0,0,1,3.4,1.4,5.17,5.17,0,0,1,1.3,3.8,6,6,0,0,1-1.4,4.1,4.61,4.61,0,0,1-3.6,1.5,4.83,4.83,0,0,1-3.5-1.4A6.69,6.69,0,0,1,231.65,26.25Zm1.7-.2a5.22,5.22,0,0,0,.8,3.1,3,3,0,0,0,2.4,1.1,2.64,2.64,0,0,0,2.3-1,5.1,5.1,0,0,0,.8-3,5.1,5.1,0,0,0-.8-3,2.84,2.84,0,0,0-2.4-1,3,3,0,0,0-2.3.9A4.37,4.37,0,0,0,233.35,26.05Z" transform="translate(-8.65 -3.55)"/></svg>