<svg xmlns="http://www.w3.org/2000/svg" viewBox="0 0 101.05 86.3"><defs><style>.cls-1{fill:#fff;}</style></defs><title>canarie</title><g id="Layer_2" data-name="Layer 2"><g id="Layer_1-2" data-name="Layer 1"><g id="Layer_2-2" data-name="Layer 2"><g id="Layer_1-2-2" data-name="Layer 1-2"><g id="Path_71" data-name="Path 71"><path class="cls-1" d="M50.88,79.07a44.23,44.23,0,0,1-21.11-5.39C12,64.28,3.47,60.88,3.39,60.85L.56,59.74,2.2,57.17c.55-.86,1.17-1.85,1.86-3,4.19-6.74,10.54-16.93,19.33-25.6l1.36-1.39C35.86,15.6,40.68,13.38,45.34,11.92l.19-.08C50.74,10,62.46,9.28,72,15.06c7.85,4.75,12.62,12.68,14.2,23.56,4.16,28.71-16.59,36.86-20.79,38.2a10.36,10.36,0,0,1-1.34.3,3.53,3.53,0,0,0-.63.13A44.89,44.89,0,0,1,50.88,79.07ZM8,57.37c3.84,1.68,11.74,5.33,24.15,11.9A39.16,39.16,0,0,0,62,72.46a8.85,8.85,0,0,1,1.24-.27,2,2,0,0,0,.64-.14c5-1.58,20.86-8.61,17.37-32.71h0C79.93,30,76,23.28,69.44,19.34c-8.32-5-18.41-4.1-22.1-2.84l-.39.15c-3.28,1-7.36,2.29-18.58,14l-1.45,1.47C18.53,40.43,12.38,50.31,8.3,56.86Z"/></g><g id="Path_72" data-name="Path 72"><path class="cls-1" d="M47.27,77a52.08,52.08,0,0,1-22.8-5.58C10,64.06,3,61.41,2.94,61.39L0,60.28l1.74-2.62c.59-.88,1.24-2,2-3.3A76.56,76.56,0,0,1,17,36.69a3.58,3.58,0,0,1,.53-.7c9.49-9,17.52-12.75,19-13.42a2.23,2.23,0,0,1,.43-.16c2.57-1.13,11.69-2.88,20.26,1C64.44,26.66,69.37,32.85,72,41.83h0c3.69,12.85.09,21-3.57,25.52a27.42,27.42,0,0,1-12.59,8.49,9.06,9.06,0,0,1-1.15.25,4.1,4.1,0,0,0-.48.1A24.6,24.6,0,0,1,47.27,77ZM7.49,57.85c3.31,1.4,9.62,4.23,19.25,9.12,10.77,5.48,22.21,5.6,26,4.44a10.48,10.48,0,0,1,1.11-.25,2,2,0,0,0,.49-.09C58.76,69.64,73,63.42,67.15,43.21h0C65,35.71,61,30.58,55.22,28c-6.94-3.15-14.65-1.68-16.15-1a4.33,4.33,0,0,1-.54.21c-1.65.75-8.74,4.21-17.25,12.19a3.87,3.87,0,0,1-.56.72A70.49,70.49,0,0,0,8.06,56.88C7.86,57.21,7.67,57.53,7.49,57.85Z"/></g><g id="Path_73" data-name="Path 73"><path class="cls-1" d="M7,86.3l.51-3.6C8.06,78.87,9.43,72.28,12,61.36c2.39-10.27,9.83-19.45,10.14-19.84S30,32.52,40,32.2c5.56-.17,10.74,2.21,15.39,7.06h0c14.28,14.92,2.72,28.84.25,31.48l-.07.07c-4,4-14.51,10.19-25.17,11.52-13.59,1.72-19.79,3.14-19.85,3.15ZM40.52,37.19h-.37C32.27,37.43,26,44.65,26,44.73s-7,8.65-9.11,17.76C15,70.33,13.79,76,13.06,79.89c3.23-.6,8.69-1.5,16.72-2.52C40.05,76.09,49.32,69.94,52,67.29c2.74-3,10.6-13.25-.25-24.58h0C48.27,39.05,44.48,37.19,40.52,37.19Z"/></g><g id="Path_74" data-name="Path 74"><path class="cls-1" d="M62.74,40.66c-2.49,0-10.22-.46-15.54-5.75-3.72-3.69-5.44-8.86-5.11-15.34h0C42.39,13.73,45,.15,62.92,0h0a7.45,7.45,0,0,1,.95.07h.33C68.1.11,76.79,2,84.6,8.84c9.06,8,13.62,11.25,13.66,11.28l2.79,2-2.72,2.06c-.53.4-1.1.86-1.73,1.37a64.49,64.49,0,0,1-14.07,9h0l-.23.16c-7.5,5-18.29,5.89-18.74,5.93C63.46,40.64,63.18,40.66,62.74,40.66ZM47.08,19.82c-.25,5,1,8.87,3.62,11.52,4.66,4.66,12.42,4.31,12.5,4.31s9.8-.82,16.21-5a4.39,4.39,0,0,1,.56-.4l.27-.15a58.19,58.19,0,0,0,12.5-7.86c-2.29-1.79-6.09-4.89-11.45-9.62C75.07,7.1,67.66,5.11,64.2,5.11a8.42,8.42,0,0,1-1-.08h-.31C56,5.09,47.66,7.71,47,19.85Z"/></g></g></g></g></g></svg>