<svg id="Layer_1" data-name="Layer 1" xmlns="http://www.w3.org/2000/svg" viewBox="0 0 1630 311.38"><defs><style>.cls-1{fill:#fff;}</style></defs><title>hamptons</title><path class="cls-1" d="M145.36,499.42q30,24,60,48.08,24.58,19.65,49.27,39.2c.89.71,1.74,1.46,3.71,3.11H210.26V742H179.45c-.13-2.28-.38-4.53-.37-6.78.08-37.48.07-75,.39-112.44.08-8.71-2.95-15.61-9.45-21a61.2,61.2,0,0,0-11.82-8.25c-3.86-1.89-4.64-4.34-4.58-8.2.19-12.32.07-24.65.07-37v-5.92H139.18c-3.47,0-2.81,2.62-2.82,4.66,0,13.16-.12,26.33,0,39.49,0,3.38-.92,5.25-4.06,7a80.08,80.08,0,0,0-12.93,9.26c-5.9,5-8.41,11.43-8.35,19.41.23,37.81.1,75.63.1,113.45V742H78.41V590.28H33.1l-.46-1.12c2-1.59,3.92-3.21,5.91-4.78q51-40.57,102.07-81.17a43.18,43.18,0,0,0,3.74-3.79Z" transform="translate(-32.64 -499.42)"/><path class="cls-1" d="M939.61,649.16c8.8,0,16.58-.32,24.33.07,18.62.93,37.23,2.11,55.83,3.41,4.26.3,6.28-.85,7.94-5.13,9.9-25.62,20.42-51,34.73-74.54A94.59,94.59,0,0,1,1074,558c5.67-6.11,13.32-7.82,22.39-8.69-17.26,15-25.79,34.37-35.06,53-7.32,14.7-13,30.22-19.38,45.39a50.38,50.38,0,0,0-1.51,5.34l25-2.36a24.72,24.72,0,0,1-17.8,8.35c-8.07.38-11.44,4-13.18,11.43-3.87,16.65-8.69,33.09-12.5,49.76-1.07,4.69-.65,10,.32,14.8,1.68,8.24,8.76,11.25,15.47,6.2,10-7.54,18.06-16.37,20.9-29.73,5-23.63,17.39-42.75,39.44-54.2,8.72-4.52,18.27-6.87,28-3.62,4.1,1.36,7.87,4.2,11.23,7,1.1.93,1.38,4.91.42,5.84-2.48,2.4-3.34-.52-4.46-2.34-3.15-5.11-8.92-7.79-14.7-5A75,75,0,0,0,1100,671.32c-12.63,11.68-21.69,26.13-28.26,41.94a39.59,39.59,0,0,0-2.5,15.94c.16,5.86,4.58,8.27,9.88,5.5,4.47-2.33,9.15-5.37,12.06-9.33,7.77-10.56,14.69-21.74,21.82-32.76,2.07-3.21,3.61-6.75,5.55-10.05,5.94-10,11-11.74,21.54-7.83-6.06,12.26-12.68,24.37-18,37-2.53,6-3.08,12.87-3.75,19.43-.49,4.88,3,6.86,7,4.13a32.61,32.61,0,0,0,9-8.52c6.54-9.82,12.49-20,18.7-30.06,1.39-2.23,1.55-5.63,5.61-5.41.76,0,1.73-2.2,2.44-3.47,4.14-7.41,8.23-14.84,12.35-22.26,3.82-6.87,9.4-9.57,17.16-7.3a14.41,14.41,0,0,0,3.33.4l-25.57,41.58,2.28,1.8c.62-1.1,1-2.44,1.89-3.28,11.45-10.89,22.81-21.88,34.57-32.43,3.24-2.91,7.58-4.76,11.65-6.54,3.21-1.4,7.14-1.18,8.86,2.15a10.68,10.68,0,0,1,.32,8.28c-4.24,9.2-9.13,18.11-13.79,27.12a12,12,0,0,0-1.68,4.94c2.92-3.18,5.84-6.35,8.74-9.55a126.06,126.06,0,0,1,42.76-30.58c3.82-1.69,8.07-2.39,12.13-3.54l.79,1.34c-.8,1.55-1.65,3.08-2.4,4.67-8.55,18-17.18,36-25.53,54.09a26.65,26.65,0,0,0-2.3,10.15c-.07,2.56.7,6.25,2.45,7.45s5.7.59,7.65-.75a41.26,41.26,0,0,0,10.48-9.79c5.53-7.87,10.23-16.32,15.38-24.47,2.43-3.85,3.17-8.35,7.68-11.49,3-2.07,3.65-8,4.59-12.3,1.4-6.52,2-13.18-1.32-19.93l14.19-2.07c4.09-.59,6.19,1.25,5.69,5.29-1.06,8.71-2.36,17.4-3.64,26.08-.26,1.75-.91,3.43-.62,5.49,1.44-2.19,3-4.33,4.3-6.59a105.64,105.64,0,0,1,21.9-26.43c5.77-5.06,12-7.82,19.63-4.33,7.18,3.3,9.91,9.65,9.27,16.81-.73,8-1.55,16.51-4.78,23.69A140.24,140.24,0,0,1,1342,724.43c-13.42,17.09-31.06,21.3-52.72,13.83-1,2.16-2,4.34-3,6.6q-10,25-20,50c-.12.3-.18.64-.31,1-6.15,14.87-10.85,17.22-26.78,13.28,19.71-35,38.73-70.25,52.25-108.12l-1.64-1.1c-1.94,2.41-4.2,4.62-5.77,7.25-6.59,11-11.87,22.85-22.71,30.63a31.3,31.3,0,0,1-6,3.6c-5.93,2.5-11.88,3.26-17.5-1s-6.62-10-5.9-16.48c1.43-13.06,8.47-23.65,14.85-34.56,1.17-2,2.63-4,3.3-6.12.47-1.5.43-4-.49-4.86s-3.57-1-5-.39a28.58,28.58,0,0,0-7.55,4.76c-18.31,16.21-33.24,34.92-42.33,57.89a7.67,7.67,0,0,1-.76,1.23c-4.81-.55-7.73-3.37-7.44-8.56a47.62,47.62,0,0,1,2.76-14.07c4.17-10.86,9.09-21.43,13.49-32.2,1.23-3,1.67-6.38,2.48-9.58l-1.66-1.06a59.21,59.21,0,0,0-7.05,4c-18.08,13.64-30.61,31.79-41.33,51.37a35.13,35.13,0,0,0-2.57,4.84c-1.54,4.35-4.87,5.54-9,5.65-2.81.08-5.62.32-8.93.52l9.71-20.57-.8-.53c-2.52,3.24-4.78,6.75-7.64,9.67-3.46,3.53-7,7.31-11.26,9.67-9.34,5.2-19.41-1.4-20.07-13-.27-4.87.7-9.82,1.14-15.18-4,5.3-7.53,10.56-11.67,15.26a67.85,67.85,0,0,1-12,11.17c-10,6.93-19.47,3.51-23.7-8-.27-.74-.62-1.44-1.06-2.43-4.58,5-8.71,10-13.24,14.52-5.17,5.17-11.22,8.89-18.83,9.23-11.58.5-19.25-6.77-19.59-18.37-.49-16.4,3.28-32,8.45-47.4,2.85-8.48,5.79-16.94,8.93-26.1-7.31-.37-14.17-.79-21-1.07-19.8-.8-39.6-1.44-59.39-2.42-4.09-.2-5.68,1.22-7,4.93-13.63,37.12-34.28,69.58-65.24,94.65-25.42,20.59-54.69,30.72-87.63,28.45-22.09-1.53-42.78-7.49-58.95-23.64-16.39-16.37-20.51-36.55-17-58.95,2.38-15,10.38-26.06,22.28-34.73,3.63-2.65,7.53-4.9,13.63-3.84a37.67,37.67,0,0,1-3.64,3.17c-18.85,12.22-26.75,30.13-25.72,51.91,1,20.56,12.71,34.22,30.85,42.51,24.07,11,48.67,10.32,73.53,2.49,47.19-14.86,78.94-46.61,99.58-90.59,2.46-5.24,4.59-10.63,6.87-16l-.77-1.35c-3.82,1-7.66,2-11.47,3.12-1.11.32-2.09,1.17-3.2,1.36-2.29.38-4.62.49-6.94.71,1.19-2.37,1.85-5.32,3.68-7a22.34,22.34,0,0,1,17.93-5.92c2.6.26,4.54-.11,5.88-3.13,11.26-25.39,22.74-50.68,34.14-76,.33-.73.57-1.5,1.13-3-7.76.67-15,1.07-22.14,2-15.18,1.87-30.56,3-45.45,6.24C874.4,579.5,854.84,590,843.5,611.71c-5.22,10-9,20.41-8.56,31.93.39,11.27,5.12,20.28,15.53,24.74,10.26,4.4,20.24,1.75,28.2-5.76,9.61-9.08,13.59-21.11,15-34,.3-2.78-1-5.73-.86-9.6,1.27,1.14,3.45,2.13,3.67,3.45,1,5.8,3,12.08,1.73,17.5-6.66,28.5-33.48,40.85-54.81,32.33-17.86-7.14-27.51-26.59-23.5-47.3,3.84-19.88,14.5-34.58,32.34-44.37a127.8,127.8,0,0,1,50.82-15c20.55-1.82,41.14-3.26,61.69-5.11a9.57,9.57,0,0,0,5.52-3.16c3.68-4.06,6.89-8.54,10.45-12.71,3.38-4,7.94-5.25,13-5.14,7,.17,10.48,5,7.73,11.42-1.17,2.75-3.31,5.84-5.85,7.12a91.45,91.45,0,0,1-18.45,7.06c-3.41.87-5.64,1.72-7,5.12-8.59,22.17-17.32,44.28-26,66.43C942.76,640.31,941.48,644,939.61,649.16Zm351.77,84.5c5.55,5.15,11,5.32,18.7-.1a108.52,108.52,0,0,0,40.62-53c1.61-4.44,1.69-9.86,1-14.59-.87-5.62-5.12-7.55-10.1-4.76a41.05,41.05,0,0,0-11.87,9.61C1314.25,690.15,1303.36,712.3,1291.38,733.66ZM977.67,558.27l1.31,1.86c4.31-2,8.78-3.85,12.84-6.32.94-.57.51-3.4.71-5.19-1.75-.13-4.18-1.06-5.13-.25A135.75,135.75,0,0,0,977.67,558.27Z" transform="translate(-32.64 -499.42)"/><path class="cls-1" d="M506.27,700.65c17.62-19.47,36.82-35.91,62.82-42l1.25,1.39c-1.8,3.3-3.74,6.54-5.36,9.93-7.53,15.74-15.11,31.46-22.32,47.35a33.78,33.78,0,0,0-2.7,12.09c-.13,2.64.84,6.63,2.68,7.71s6,.1,8-1.43a39,39,0,0,0,9.52-10.09c6.34-10.15,12.12-20.65,18-31.08,1.28-2.28,2.08-4.88,4.36-3,6.77-8.75,13-17.58,20-25.64a39.26,39.26,0,0,1,22.23-12.65A26.24,26.24,0,0,1,637,654c5.73,1.73,8.1,6.75,6.94,12.72-2.58,13.36-11.4,22.22-22.65,28.26-7.19,3.87-15.6,5.47-23.41,8.22-1.38.48-3.5,1.45-3.63,2.43-1,7.33-2.76,14.81-2.12,22.05.74,8.35,6.87,11.58,15.18,10.17,9.54-1.61,16.59-7.34,21.74-14.81,5.92-8.57,10.58-18,15.86-27.05a56.29,56.29,0,0,1,3.65-4.95l1.34.76c0,.92.33,2-.05,2.73-6,11.1-11.52,22.49-18.28,33.1-5.36,8.4-13.77,13.31-23.8,15.15-19.74,3.64-33.25-10.28-29.94-31a45,45,0,0,0,1-8.39c-3.62,6.32-6.86,12.89-11,18.88-3.82,5.58-8,11.17-13,15.66-8.26,7.43-19.16,7.07-25.68.25-4.94-5.15-4.88-11.71-3-17.38,3.28-9.67,8-18.87,12.3-28.18,1.52-3.32,3.72-6.32,5.21-9.64.57-1.27.59-3.82-.2-4.43a6,6,0,0,0-5-.82,31.46,31.46,0,0,0-7.62,4.65c-15.56,12.3-26.87,28.07-36.59,45.11a18.48,18.48,0,0,0-1.94,3.49c-3.13,10.39-10.87,12.83-21.8,11.74l72.53-145.45L504,585.3c-5.82,12.22-12.5,24.51-17.61,37.41-7,17.6-12.24,35.89-19.26,53.49A285.68,285.68,0,0,1,449.6,712c-14.43,25.24-36.17,41.41-64.31,48.65-31.81,8.19-63,7.82-93.69-5.88-35.57-15.88-46.1-49-37.73-81.77,3.42-13.43,9.39-24.92,22.28-31.55a17.09,17.09,0,0,1,6.06-2c1.35-.13,2.81,1,4.22,1.6-.6,1.36-.91,3-1.87,4a29.47,29.47,0,0,1-4.8,3.57c-16.31,11.39-21.75,27.52-20.08,46.59,2.82,32.28,23.25,50,52,57.94,36.86,10.21,70.41.77,100.09-22.81,14.22-11.3,24.58-25.92,32.79-41.8,15.28-29.55,29.75-59.51,44.56-89.3,2.72-5.48,5.45-11,8.6-17.27-10.93-2.79-21.47-5.75-32.12-8.15-17.76-4-35.75-6.39-54-5.49-24.38,1.19-44.79,10.59-60,30.1a48.43,48.43,0,0,0-9.89,22.08c-3,17.8,7.4,31.41,25.35,33A38.58,38.58,0,0,0,408,624.68c.31-1.15,1.69-2,2.57-3,.66,1.31,2,2.69,1.87,3.92-1.17,11.48-7,20.11-16.35,26.76-18.43,13.14-39.11,8.81-52-1.32-13.82-10.82-19-32.59-11.81-51.14,9.37-24.25,28-37.27,52.85-42.29,25.36-5.13,50-1.17,74.3,6.44,11.74,3.67,23.55,7.21,35.07,11.49,5.49,2,8.94,1.57,12.55-3.28S515.17,563,521.81,562c3.76-.54,5.35,1.49,5.3,4.79a4,4,0,0,1-2.5,2.89c-7.43,1.36-11.12,3.68-15.23,10.76,13.41,3.4,26.45,7.08,39.69,9.83,4.63,1,9.74-.48,14.64-.5.93,0,1.84,1.63,2.82,2.43.65.53,1.42,1.32,2.14,1.33a148.86,148.86,0,0,0,16.37-.22c4-.41,7.12-2.63,7.52-7.36.09-1,1.36-1.91,2.08-2.87.86,1,2.24,2,2.48,3.12,1.1,5.26-.78,8.84-5.63,11.59-7.86,4.45-16.34,4.39-24.79,2.89-4.4-.77-7,0-9.23,4.13-16.49,30.81-33.18,61.51-49.78,92.25A31.27,31.27,0,0,0,506.27,700.65Zm90.68-2.4,1,1.42c5.07-1.7,10.35-3,15.18-5.19,10.94-5.06,19.46-12.76,23.32-24.57,1.21-3.7,3-8.41-.85-11.1s-8,.26-10.6,3.15c-7.55,8.34-14.79,17-21.84,25.76C600.62,690.86,599,694.72,597,698.25Z" transform="translate(-32.64 -499.42)"/><path class="cls-1" d="M1461.27,730.7c4.61,7,14.58,8.19,21.68.71a109.76,109.76,0,0,0,15.41-20.64c8.52-14.85,16.09-30.24,24.18-45.34,3-5.6,7.54-8.83,14.28-7.73,2.41.39,4.81.85,6,1.06l-25.46,41.37,1.32,1.09a17.76,17.76,0,0,0,2-1.47,28.58,28.58,0,0,0,2-2.26c12.32-14.58,26.87-26.34,44.32-34.21,4.7-2.12,9.81-3.3,14.73-4.9l.93,1.62c-1.86,3.46-3.9,6.83-5.55,10.38-7.81,16.7-15.63,33.39-23.13,50.23-1.38,3.08-1.7,6.8-1.81,10.24-.19,5.95,3.94,8.8,8.72,5.36a62.76,62.76,0,0,0,14.32-14.27c5.44-7.63,8.84-16.77,14.57-24.14,10.06-12.92,15.17-28.38,23.44-42.16,4.7-7.82,10.66-14.33,21.08-13.21a16.52,16.52,0,0,1,5.61,1.83c.77.4,1,1.81,1.5,2.76-1,.35-2,1.14-2.9,1-11-1.7-17.09,2.81-17.07,14.15,0,6,1.61,12.05,3.3,17.85,1.47,5.08,4.24,9.75,6.14,14.72,5.41,14.2,1.87,26.43-8.54,37-1.74,1.76-3.6,3.41-5.4,5.11.1.52.21,1,.31,1.57,3.48-.63,7.71-.23,10.28-2.1,5.66-4.15,11.43-8.77,15.44-14.41,5.66-7.95,9.72-17,14.58-25.56a39.28,39.28,0,0,1,3.77-4.75l1.39.87a11,11,0,0,1-.44,3.14c-6,13.4-12,26.69-22.72,37.26-7.22,7.09-15.59,9.72-25.43,8.73a18.51,18.51,0,0,0-6.39.06c-15.72,4.19-23.87.71-30.59-13-4.37,3.87-8.45,8.37-13.35,11.62-8.35,5.54-18.45,3.57-23.56-3.77-3.11-4.45-3-9.36-2.2-14.4,1.78-11.87,8.14-21.71,14-31.75,1.18-2,2.72-3.9,3.42-6.06.59-1.84.21-4,.26-6-2.19,0-4.77-.71-6.51.18a51.16,51.16,0,0,0-9.31,6.65c-14.73,12.46-25.29,28.17-34.57,44.85-.24.44-.47.89-.7,1.33-6.49,12-6.49,12-21,11.74,1-2.48,1.9-4.81,3.25-8.25-11.26,7.07-21.45,7.72-31-.56-27.24,14-35.71,10.81-40.69-15.76a39.08,39.08,0,0,1-3.32,4.68c-5.27,5.47-9.87,12.05-16.13,16-14.19,8.91-29.11.08-29-16.65.08-14.85,4.83-28.8,9.58-42.65,3.17-9.22,6.73-18.31,10.43-28.31-4.09,0-7.53.17-10.94-.1-1.14-.09-2.2-1.31-3.3-2,1.06-1,2-2.61,3.2-2.76a46.2,46.2,0,0,1,9.48-.09c3.18.26,4.62-1.13,6-3.87,6-11.71,11.61-23.63,18.57-34.73a58.11,58.11,0,0,1,15.1-15.5c7.31-5.29,15.06-1.37,14.84,7.62-.18,7.11-2.21,14.42-4.72,21.16-3.12,8.35-7.58,16.2-11.94,25.28,3.84,0,7.07-.2,10.24.11,1.08.1,2,1.49,3,2.29-1,.86-2,1.74-3,2.55-.21.17-.67.11-1,0-9.46-2-14.29,3-19.32,10.41-6.84,10.15-15.66,19-23.42,28.5a22.53,22.53,0,0,0-4.36,8c-2,7.54-3.52,15.22-5.16,22.87a19,19,0,0,0-.47,4.44c.26,8.47,5.14,11.85,13,8.67,2.84-1.15,6-2.83,7.73-5.21,6.69-9.25,14.09-18.29,18.92-28.51,7.33-15.52,15.92-29.6,30.12-39.63,6.64-4.7,13.86-8,22.33-6.83,8.29,1.13,12.76,5.33,14.58,13.45,3,13.69-.76,26.24-7.43,37.81C1473.75,714.26,1467.29,722.16,1461.27,730.7Zm4.75-14.92c6.66-11.91,13.41-23.1,14.73-36.59.59-6.05,1.6-12.63-4.49-16.23-6.6-3.9-12.28.33-17.08,4.51-15.94,13.88-24.41,32.12-28.79,52.33-1.21,5.61-2.49,12.76,4.09,16.22,6.78,3.56,12.36-.85,17.48-5,.23-.18.28-.58-.12.31-1-5.54-2.49-10-2.52-14.5,0-6.11,2.49-8.9,6.83-9.4C1461.38,706.78,1463.81,708.71,1466,715.78Zm125.44-8.34,1.58-.3c1,3.32,2.66,6.58,3,10,.72,6.5,2.15,12.4,7.49,16.8,2.45,2,4.82,2.1,6.22-.61,2.85-5.52,7.29-11.27,7.36-17,.23-17.31-1.32-34.64-2.18-52l-1.51-.21ZM1404.31,646.5c4,0,6.73.17,9.46-.07,1.49-.14,3.69-.56,4.26-1.58,6.8-12.34,13.92-24.6,16-38.85.29-2-.59-4.2-.92-6.3l-2-.35C1417.79,612,1412.88,629.63,1404.31,646.5Zm-14.94,36.42,1.47,1.14L1414,653l-1.1-1.44c-2.11,0-4.22.08-6.33,0-2.66-.13-4.7.2-5.87,3.24C1397.1,664.21,1393.18,673.54,1389.37,682.92Zm202,37.9c-3.87,4.16-4.77,10.59-1.68,14.75a8.83,8.83,0,0,0,10.86,2.88Z" transform="translate(-32.64 -499.42)"/><path class="cls-1" d="M142,686.36H119.82V650.77c6.66,0,13.1-.11,19.54.12a3.76,3.76,0,0,1,2.54,2.63C142.08,664.3,142,675.09,142,686.36Z" transform="translate(-32.64 -499.42)"/><path class="cls-1" d="M150.6,651h21c0,11.19.06,22.1-.13,33,0,.9-1.78,2.48-2.78,2.52-5.94.24-11.9.12-18.07.12Z" transform="translate(-32.64 -499.42)"/><path class="cls-1" d="M141.65,642.21H120.3c-3.79-21.91,5.94-37.14,21.35-39.13Z" transform="translate(-32.64 -499.42)"/><path class="cls-1" d="M150.61,642.4V603.18c10.87,1.24,19.89,10.52,21.52,22,2.48,17.28,2.48,17.28-14.68,17.27Z" transform="translate(-32.64 -499.42)"/></svg>