<?xml version="1.0" encoding="utf-8"?>
<!-- Generator: Adobe Illustrator 21.1.0, SVG Export Plug-In . SVG Version: 6.00 Build 0)  -->
<svg version="1.1" id="レイヤー_1" xmlns="http://www.w3.org/2000/svg" xmlns:xlink="http://www.w3.org/1999/xlink" x="0px"
	 y="0px" viewBox="0 0 250 51" style="enable-background:new 0 0 250 51;" xml:space="preserve">
<style type="text/css">
	.st0{fill:none;stroke:#000000;stroke-width:3;stroke-linecap:square;stroke-miterlimit:10;}
</style>
<g>
	<polyline class="st0" points="50.9,8.4 68.4,26 51.1,43.3 	"/>
	<rect x="46.3" y="3.9" width="9.4" height="9.4"/>
	<rect x="63.6" y="21.2" width="9.4" height="9.4"/>
	<rect x="46.3" y="38.4" width="9.4" height="9.4"/>
	<rect x="10" y="21.2" width="9.4" height="9.4"/>
</g>
<g>
	<path d="M90.8,24.6c1,0.3,1.7,0.7,2.1,1.3s0.7,1.3,0.7,2.2c0,1.3-0.5,2.3-1.4,2.9s-2.3,1-4.2,1h-4.7v-1.4h1.5v-11h-1.5v-1.4H88
		c1.8,0,3.1,0.3,3.9,0.8c0.8,0.5,1.2,1.4,1.2,2.6c0,0.7-0.2,1.4-0.5,1.9S91.6,24.2,90.8,24.6L90.8,24.6z M88.2,24
		c1.1,0,1.9-0.2,2.4-0.6c0.5-0.4,0.8-1,0.8-1.8c0-0.8-0.2-1.4-0.7-1.7s-1.4-0.5-2.7-0.5h-1.5V24H88.2z M88.2,30.5
		c1.2,0,2.2-0.2,2.8-0.6c0.6-0.4,0.9-1,0.9-1.9c0-0.8-0.3-1.5-0.8-1.9c-0.5-0.5-1.4-0.7-2.7-0.7h-2.1v5.1H88.2z"/>
	<path d="M94.8,26.6c0-1.7,0.5-3,1.4-4s2.1-1.5,3.6-1.5c1.4,0,2.6,0.5,3.4,1.4c0.9,0.9,1.3,2.2,1.3,3.8c0,1.7-0.5,3.1-1.4,4.1
		c-0.9,1-2.1,1.5-3.6,1.5c-1.4,0-2.6-0.5-3.5-1.4C95.2,29.5,94.8,28.2,94.8,26.6z M96.4,26.4c0,1.4,0.3,2.4,0.8,3.1
		c0.6,0.7,1.4,1.1,2.4,1.1c1,0,1.8-0.3,2.3-1c0.5-0.7,0.8-1.7,0.8-3c0-1.3-0.3-2.3-0.8-3c-0.5-0.7-1.4-1-2.4-1c-1,0-1.7,0.3-2.3,0.9
		C96.7,24.1,96.4,25,96.4,26.4z"/>
	<path d="M110.7,25.5l2.3-3h-1.2v-1.4h4.1v1.4h-1.4l-3.2,3.9l3.1,4h1.5v1.4h-4.6v-1.4h1.1l-2.1-3h-0.1l-2.3,3h1.3v1.4h-4.1v-1.4h1.2
		l3.2-4l-3-4h-1.4v-1.4h4.6v1.4h-1.2L110.7,25.5L110.7,25.5z"/>
	<path d="M127.5,31.9c-1.4,0-2.7-0.3-4.1-0.8v-3.3h1.5v2.3c0.8,0.3,1.7,0.4,2.8,0.4c1.1,0,1.9-0.2,2.5-0.6c0.6-0.4,0.9-0.9,0.9-1.5
		c0-0.3-0.1-0.6-0.2-0.9c-0.1-0.2-0.3-0.5-0.6-0.6c-0.3-0.2-0.6-0.4-1.1-0.5c-0.4-0.2-0.9-0.4-1.5-0.5c-0.5-0.2-1-0.4-1.6-0.6
		c-0.5-0.2-1-0.5-1.4-0.7c-0.4-0.3-0.8-0.7-1.1-1.1c-0.3-0.4-0.4-1-0.4-1.6c0-1.1,0.5-2,1.4-2.7c0.9-0.7,2.1-1,3.7-1
		c1.4,0,2.7,0.3,3.8,0.9v3.2h-1.5v-2.3c-0.7-0.3-1.5-0.4-2.5-0.4c-1,0-1.8,0.2-2.3,0.6c-0.5,0.4-0.8,0.9-0.8,1.5
		c0,0.4,0.1,0.7,0.2,0.9c0.1,0.2,0.4,0.5,0.7,0.7s0.6,0.4,1.1,0.5c0.4,0.2,0.9,0.3,1.5,0.5c0.5,0.2,1,0.4,1.6,0.6
		c0.5,0.2,1,0.4,1.4,0.7c0.4,0.3,0.8,0.6,1,1.1c0.3,0.4,0.4,0.9,0.4,1.5c0,1.2-0.5,2.1-1.4,2.8C130.5,31.6,129.2,31.9,127.5,31.9z"
		/>
	<path d="M138.2,35.1v1.4h-4.6v-1.4h1.5V22.6h-1.5v-1.4h3l0.1,1.2h0.1c0.9-0.8,1.9-1.2,2.9-1.2c1.2,0,2.2,0.5,3,1.4s1.2,2.2,1.2,3.7
		c0,1.7-0.4,3-1.3,4c-0.9,1-2,1.6-3.4,1.6c-0.8,0-1.6-0.2-2.3-0.5l-0.1,0v3.7H138.2z M136.6,30.1c0.6,0.3,1.4,0.4,2.2,0.4
		c1.1,0,1.9-0.3,2.5-0.9c0.6-0.6,0.9-1.6,0.9-3c0-1.3-0.3-2.3-0.8-3c-0.5-0.7-1.2-1.1-2.2-1.1c-0.9,0-1.8,0.4-2.6,1.3V30.1z"/>
	<path d="M151.4,22.9c-0.4-0.1-0.7-0.1-1.1-0.1c-1.2,0-2,0.5-2.5,1.6v6.1h1.5v1.4h-4.6v-1.4h1.5v-7.9h-1.5v-1.4h3l0.1,1.6h0.1
		c0.7-1,1.6-1.6,2.7-1.6c0.3,0,0.5,0,0.8,0.1V22.9z"/>
	<path d="M153,30.5h1.5v-7.9H153v-1.4h3.1v9.4h1.5v1.4H153V30.5z M154,18.5c0-0.4,0.1-0.7,0.3-0.9c0.2-0.2,0.5-0.3,0.8-0.3
		c0.3,0,0.6,0.1,0.8,0.3c0.2,0.2,0.3,0.5,0.3,0.8c0,0.4-0.1,0.7-0.3,0.9c-0.2,0.2-0.5,0.3-0.8,0.3c-0.3,0-0.6-0.1-0.8-0.3
		C154.1,19.1,154,18.8,154,18.5z"/>
	<path d="M158.7,30.5h1.5v-7.9h-1.5v-1.4h3l0.1,1.5h0c1-1,2.1-1.5,3.4-1.5c1,0,1.8,0.3,2.3,0.9c0.5,0.6,0.7,1.4,0.7,2.4v6.1h1.5v1.4
		h-4.6v-1.4h1.5v-5.9c0-0.8-0.2-1.3-0.5-1.6c-0.3-0.3-0.8-0.4-1.4-0.4c-1.1,0-2.1,0.5-3,1.6v6.3h1.5v1.4h-4.6V30.5z"/>
	<path d="M177.6,31.5v-0.7h-0.1c-0.8,0.8-1.8,1.2-2.8,1.2c-1.2,0-2.3-0.5-3.1-1.5s-1.2-2.2-1.2-3.7c0-1.7,0.4-3.1,1.3-4.1
		c0.9-1,2.2-1.5,3.8-1.5c1.1,0,2.3,0.2,3.6,0.6v9.7c0,1.8-0.4,3.1-1.1,3.9c-0.7,0.8-1.9,1.2-3.5,1.2c-1,0-2-0.1-3.1-0.4v-1.5
		c0.9,0.3,2,0.5,3.1,0.5c1.1,0,1.9-0.2,2.4-0.7C177.3,33.9,177.6,32.9,177.6,31.5z M177.6,22.8c-0.7-0.2-1.4-0.3-2.2-0.3
		c-1.1,0-2,0.3-2.5,1c-0.5,0.7-0.8,1.7-0.8,3c0,1.3,0.3,2.3,0.8,3c0.5,0.7,1.3,1,2.2,1s1.8-0.4,2.5-1.1V22.8z"/>
	<path d="M190.1,31.9c-1.4,0-2.7-0.3-4.1-0.8v-3.3h1.5v2.3c0.8,0.3,1.7,0.4,2.8,0.4c1.1,0,1.9-0.2,2.5-0.6c0.6-0.4,0.9-0.9,0.9-1.5
		c0-0.3-0.1-0.6-0.2-0.9c-0.1-0.2-0.3-0.5-0.6-0.6c-0.3-0.2-0.6-0.4-1.1-0.5c-0.4-0.2-0.9-0.4-1.5-0.5c-0.5-0.2-1-0.4-1.6-0.6
		c-0.5-0.2-1-0.5-1.4-0.7c-0.4-0.3-0.8-0.7-1.1-1.1c-0.3-0.4-0.4-1-0.4-1.6c0-1.1,0.5-2,1.4-2.7c0.9-0.7,2.1-1,3.7-1
		c1.4,0,2.7,0.3,3.8,0.9v3.2h-1.5v-2.3c-0.7-0.3-1.5-0.4-2.5-0.4c-1,0-1.8,0.2-2.3,0.6c-0.5,0.4-0.8,0.9-0.8,1.5
		c0,0.4,0.1,0.7,0.2,0.9c0.1,0.2,0.4,0.5,0.7,0.7s0.6,0.4,1.1,0.5c0.4,0.2,0.9,0.3,1.5,0.5c0.5,0.2,1,0.4,1.6,0.6
		c0.5,0.2,1,0.4,1.4,0.7c0.4,0.3,0.8,0.6,1,1.1c0.3,0.4,0.4,0.9,0.4,1.5c0,1.2-0.5,2.1-1.4,2.8C193.1,31.6,191.8,31.9,190.1,31.9z"
		/>
	<path d="M201,31.9c-0.8,0-1.5-0.2-2.1-0.6c-0.5-0.4-0.8-1-0.8-1.9v-6.8h-1.5v-1.4h1.5v-2.8l1.5-0.3v3.1h3.3v1.4h-3.3v6.6
		c0,0.5,0.2,0.8,0.5,1c0.3,0.2,0.7,0.3,1.1,0.3c0.6,0,1.1-0.2,1.7-0.5v1.4C202.3,31.8,201.7,31.9,201,31.9z"/>
	<path d="M212,22.6h-1.5v-1.4h3.1v9.4h1.5v1.4h-3l-0.1-1.5h-0.1c-0.8,1-1.9,1.5-3.2,1.5c-1,0-1.8-0.3-2.4-0.8s-0.8-1.3-0.8-2.3v-6.3
		H204v-1.4h3.1v7.3c0,0.8,0.2,1.3,0.6,1.6s0.9,0.4,1.5,0.4c1.2,0,2.1-0.5,2.8-1.4V22.6z"/>
	<path d="M221.6,17.9v-1.4h3.1v14h1.5v1.4h-3l-0.1-1.3h-0.1c-0.8,0.9-1.8,1.3-2.8,1.3c-1.2,0-2.3-0.5-3.1-1.5s-1.2-2.2-1.2-3.7
		c0-1.7,0.4-3,1.3-4.1c0.9-1,2.1-1.5,3.5-1.5c0.8,0,1.6,0.2,2.3,0.5h0.1v-3.7H221.6z M223.1,23c-0.7-0.3-1.5-0.5-2.3-0.5
		c-1.1,0-1.9,0.3-2.4,1c-0.5,0.7-0.8,1.6-0.8,3c0,1.3,0.3,2.3,0.8,3c0.5,0.7,1.3,1,2.2,1c1,0,1.8-0.4,2.5-1.2V23z"/>
	<path d="M227.5,30.5h1.5v-7.9h-1.5v-1.4h3.1v9.4h1.5v1.4h-4.6V30.5z M228.5,18.5c0-0.4,0.1-0.7,0.3-0.9c0.2-0.2,0.5-0.3,0.8-0.3
		c0.3,0,0.6,0.1,0.8,0.3c0.2,0.2,0.3,0.5,0.3,0.8c0,0.4-0.1,0.7-0.3,0.9c-0.2,0.2-0.5,0.3-0.8,0.3c-0.3,0-0.6-0.1-0.8-0.3
		C228.6,19.1,228.5,18.8,228.5,18.5z"/>
	<path d="M233,26.6c0-1.7,0.5-3,1.4-4s2.1-1.5,3.6-1.5c1.4,0,2.6,0.5,3.4,1.4c0.9,0.9,1.3,2.2,1.3,3.8c0,1.7-0.5,3.1-1.4,4.1
		c-0.9,1-2.1,1.5-3.6,1.5c-1.4,0-2.6-0.5-3.5-1.4C233.5,29.5,233,28.2,233,26.6z M234.7,26.4c0,1.4,0.3,2.4,0.8,3.1
		c0.6,0.7,1.4,1.1,2.4,1.1c1,0,1.8-0.3,2.3-1c0.5-0.7,0.8-1.7,0.8-3c0-1.3-0.3-2.3-0.8-3c-0.5-0.7-1.4-1-2.4-1c-1,0-1.7,0.3-2.3,0.9
		C235,24.1,234.7,25,234.7,26.4z"/>
</g>
</svg>
