<svg xmlns="http://www.w3.org/2000/svg" viewBox="0 0 201.72 111.46"><defs><style>.cls-1{fill:#231f20;}</style></defs><title>exotic_logo</title><g id="Layer_2" data-name="Layer 2"><g id="Layer_1-2" data-name="Layer 1"><path class="cls-1" d="M78.94,83.4a4.57,4.57,0,0,0-4.49,4.72,4.49,4.49,0,1,0,4.49-4.72Z"/><path class="cls-1" d="M137.65,94a4.31,4.31,0,0,0,3.22-1.82V89.62a7.31,7.31,0,0,0-2.62-.56c-1.82,0-3,1-3,2.52A2.33,2.33,0,0,0,137.65,94Z"/><path class="cls-1" d="M94.61,51.85a8.09,8.09,0,0,0,7.79-8.36,7.8,7.8,0,1,0-15.58,0C86.81,48.11,90.22,51.85,94.61,51.85Z"/><path class="cls-1" d="M.14,0H0V.16Z"/><path class="cls-1" d="M104.8,104.38c0-.84-.65-2.29-3.41-2.29a21.77,21.77,0,0,0-3,.19c-.56.19-2,.84-2,2.29,0,1.64,1.59,2.76,4.11,2.76S104.8,106.16,104.8,104.38Z"/><path class="cls-1" d="M23.24,110.27l6.63-14.06L22.26,80a.83.83,0,0,1,.79-1.22h4.2a.84.84,0,0,1,.79.51L32.77,89.9h0l4.67-10.56c.23-.47.56-.51,1.12-.51h3.74A.8.8,0,0,1,43.14,80L28.84,111a1.06,1.06,0,0,1-.49.49H47.43a.92.92,0,0,1-.55-.81V79.71a.89.89,0,0,1,.89-.89h1.82a.84.84,0,0,1,.79.56L51,80.93a8.09,8.09,0,0,1,6-2.57c5.14,0,9,4.44,9,9.81A9.52,9.52,0,0,1,56.79,98a9.32,9.32,0,0,1-4.16-1v13.69a.75.75,0,0,1-.56.81H96.25c-3.76-1.08-5.27-3.59-5.27-5.86a5.26,5.26,0,0,1,2.8-4.44V101a5.05,5.05,0,0,1-3.5-4.91c0-3.64,3.5-5.23,3.5-5.23a7,7,0,0,1-1.4-4.39,8.14,8.14,0,0,1,8.13-8.13H109a.86.86,0,0,1,.89.89v1.54a.82.82,0,0,1-.51.79l-2.62.84a6.07,6.07,0,0,1,1.87,4.77c0,3.69-3.08,7.33-8,7.33-1.77,0-3-.37-3.74-.37a1.86,1.86,0,0,0-1.73,1.77A1.68,1.68,0,0,0,97,97.51h6c4.25,0,7.71,2.43,7.71,6.54,0,3.32-2.07,6.24-6.12,7.4h69a.81.81,0,0,1-.41-1.19l6.63-14.06L172.27,80a.83.83,0,0,1,.79-1.22h4.2a.84.84,0,0,1,.79.51l4.72,10.56h0l18.89-42.75V0H129.83V27.33H137a1.49,1.49,0,0,1,1.54,1.54v5.44A1.54,1.54,0,0,1,137,35.86h-7.14v13c0,2.27,1.22,2.6,2.52,2.6a13,13,0,0,0,4-.89,1.26,1.26,0,0,1,1.79.89l1.62,5.11a1.47,1.47,0,0,1-.89,2,30.62,30.62,0,0,1-9.66,2.11c-6.25,0-9-3.9-9-10.47V35.86h-2.76a1.53,1.53,0,0,1-1.46-1.54V28.88a1.47,1.47,0,0,1,1.46-1.54h2.76V0H37.44a1.64,1.64,0,0,1,.5,1.18V8.24a1.63,1.63,0,0,1-1.64,1.64H10.83V24H32.09a1.69,1.69,0,0,1,1.64,1.64v7.15a1.63,1.63,0,0,1-1.64,1.64H10.83V49.47H36.31a1.63,1.63,0,0,1,1.64,1.64v7.06a1.63,1.63,0,0,1-1.64,1.64h-35A1.61,1.61,0,0,1,0,59.18V65a.85.85,0,0,1,.51-.18H20.93a.89.89,0,0,1,.89.89v3.83a.89.89,0,0,1-.89.89H13.78V96.63a.92.92,0,0,1-.89.89H8.55a.92.92,0,0,1-.89-.89V70.41H.51A.85.85,0,0,1,0,70.23v41.22H23.65A.81.81,0,0,1,23.24,110.27Zm124.23-52V28.88A1.54,1.54,0,0,1,149,27.33h6.74a1.54,1.54,0,0,1,1.54,1.54V58.26a1.6,1.6,0,0,1-1.54,1.54H149A1.6,1.6,0,0,1,147.46,58.26ZM180.8,26.52a14.85,14.85,0,0,1,12,5.76,1.54,1.54,0,0,1-.41,2.27l-3.73,3.57c-.73.65-1.46.24-2-.24a7.64,7.64,0,0,0-5.6-2.6,8.14,8.14,0,0,0-8,8.28A8,8,0,0,0,181,51.85c3.49,0,5-1.71,6.49-3.08a1.52,1.52,0,0,1,2-.24l3.49,3c.81.65,1.14,1.46.57,2.27a14.46,14.46,0,0,1-12.83,6.82,17.13,17.13,0,0,1-17.21-17C163.51,34,171.7,26.52,180.8,26.52ZM169.58,87.66v9a.92.92,0,0,1-.89.89H164.9a.89.89,0,0,1-.89-.89v-9c0-2.57-1.45-4.21-3.69-4.21a4.08,4.08,0,0,0-4.06,3.32v9.9c0,.51-.28.89-1,.89H151.4a.92.92,0,0,1-.89-.89V65.7a.92.92,0,0,1,.89-.89h4a.92.92,0,0,1,.89.89V79.9a8.62,8.62,0,0,1,5-1.54C167.15,78.36,169.58,82.94,169.58,87.66ZM152.25,4.6a5.6,5.6,0,1,1,0,11.2,5.54,5.54,0,0,1-5.52-5.6A5.54,5.54,0,0,1,152.25,4.6ZM137.56,85.69a12,12,0,0,1,3.41.51c0-2.38-.7-3.22-2.43-3.22a22.47,22.47,0,0,0-5.23.7c-.65.19-1-.23-1.07-.84l-.42-2.43a.92.92,0,0,1,.65-1.17,25,25,0,0,1,6.35-.89c5.84,0,7.19,3,7.19,8.13V96.63a.92.92,0,0,1-.89.89h-1.68c-.33,0-.56-.14-.79-.65l-.56-1.26a8,8,0,0,1-5.7,2.38c-3.74,0-6.31-2.43-6.31-6.4C130.09,88.26,132.8,85.69,137.56,85.69ZM78.94,98a9.81,9.81,0,1,1,9.58-9.86A9.77,9.77,0,0,1,78.94,98Zm36.45-18.27a.89.89,0,0,1,.89-.89H118a.86.86,0,0,1,.84.61l.65,1.82a6.52,6.52,0,0,1,5.28-2.9c2.2,0,4.16.7,3.6,1.87l-1.73,3a.83.83,0,0,1-1.07.42,5.07,5.07,0,0,0-1.35-.28,3.79,3.79,0,0,0-3.32,1.92V96.63c0,.65-.42.89-1.07.89h-3.6a.92.92,0,0,1-.89-.89ZM94.61,26.52a16.94,16.94,0,0,1,16.64,17c0,9.34-7.47,17.13-16.64,17.13S78,52.82,78,43.49A16.94,16.94,0,0,1,94.61,26.52ZM43.69,29.69a1.42,1.42,0,0,1,1.22-2.35h6.74a2.77,2.77,0,0,1,2.68,1.14L59.6,36.1h.08L65,28.47a2.56,2.56,0,0,1,2.44-1.14h7.3c1.38,0,1.79,1.3,1,2.35L65.52,43.16,75.83,57.45c.73,1.06.32,2.35-1,2.35H67.72a2.59,2.59,0,0,1-2.27-1.3l-5.76-8.12H59.6l-6.17,8.77a2,2,0,0,1-1.3.65H44.34c-1.38,0-1.7-1.3-1-2.35l10.55-14.2Z"/><path class="cls-1" d="M178.86,111a1.06,1.06,0,0,1-.49.49h23.35V61.77Z"/><path class="cls-1" d="M60.57,88.17a4.47,4.47,0,0,0-4.34-4.77,4,4,0,0,0-3.83,2.85v5.61A6,6,0,0,0,56,92.93,4.59,4.59,0,0,0,60.57,88.17Z"/><path class="cls-1" d="M103.87,86.72a3.15,3.15,0,0,0-3.22-3.36,3.37,3.37,0,0,0,0,6.73A3.15,3.15,0,0,0,103.87,86.72Z"/></g></g></svg>